<svg xmlns="http://www.w3.org/2000/svg" xmlns:xlink="http://www.w3.org/1999/xlink" viewBox="0 0 76 74" fill="#fff" fill-rule="evenodd" stroke="#000" stroke-linecap="round" stroke-linejoin="round"><use xlink:href="#A" x=".5" y=".5"/><symbol id="A" overflow="visible"><g stroke="none" fill-rule="nonzero"><path d="M37.455 53.865H4.59C1.8 53.865 0 52.14 0 49.35L.015 4.5c0-2.76 1.8-4.5 4.545-4.5h65.88c2.745 0 4.545 1.74 4.545 4.485v44.85c0 2.79-1.8 4.53-4.59 4.53h-32.94zm0-4.575H69.06c1.35 0 1.35 0 1.35-1.335v-42c0-1.38 0-1.38-1.395-1.38H5.97c-1.395 0-1.395 0-1.395 1.38V47.88c0 1.41 0 1.425 1.44 1.425l31.44-.015zm.03 23.52h-15.75c-.3 0-.615.015-.915-.045-1.245-.195-2.1-1.215-2.025-2.385.075-1.23 1.035-2.13 2.355-2.145l4.35-.015c2.985-.015 5.01-2.04 5.025-4.995l-.015-5.7c-.015-.75.225-1.05 1.005-1.05H43.5c.72 0 .99.255.99.975v5.775c.015 2.925 2.04 4.95 4.95 4.98h4.275c1.47.015 2.505.945 2.505 2.25s-1.02 2.31-2.46 2.31l-10.05.015-6.225.03z" fill="#d27228"/><path d="M37.455 49.29H6.015c-1.44 0-1.44 0-1.44-1.425V5.94c0-1.365 0-1.38 1.395-1.38h63.045c1.395 0 1.395 0 1.395 1.38v42c0 1.335 0 1.335-1.35 1.335l-31.605.015z"/><path d="M12.045 39.195l-1.32-.555 11.805-27.9 12.225 24.675 16.395-2.52h12.93v1.425H51.195L33.93 36.99 22.635 14.145z" fill="#009cc6"/><path d="M11.88 39.42l-.99-1.005 15.21-14.97 12.75 7.215 11.01-18.735L63.945 9.27l.27 1.395L50.76 13.2l-11.4 19.38-13.02-7.38z" fill="#d27228"/><path d="M64.08 43.5h-53.4V8.28h1.41v33.81h51.99z" fill="#efccaf"/></g></symbol></svg>